<?xml version="1.0" encoding="UTF-8"?>
<svg version="1.1" xmlns="http://www.w3.org/2000/svg" width="1080" height="540">
<path d="M0 0 C1.22244667 0.00333092 1.22244667 0.00333092 2.46958923 0.00672913 C3.39046829 0.00680466 4.31134735 0.00688019 5.26013184 0.00695801 C6.2611644 0.01211929 7.26219696 0.01728058 8.29356384 0.02259827 C9.31316696 0.02401321 10.33277008 0.02542816 11.38327026 0.02688599 C14.65417867 0.03250355 17.92501972 0.04505902 21.19590759 0.05775452 C23.40749515 0.06276725 25.61908377 0.06733055 27.83067322 0.07142639 C33.26494116 0.08247868 38.69916957 0.09923389 44.13340759 0.12025452 C47.39386891 7.49660882 47.39386891 7.49660882 48.30918884 11.48353577 C48.58690125 12.67088318 48.58690125 12.67088318 48.870224 13.88221741 C49.06019958 14.72389465 49.25017517 15.5655719 49.44590759 16.43275452 C49.75794128 17.77744812 49.75794128 17.77744812 50.07627869 19.14930725 C50.76835586 22.13819321 51.45101933 25.12914265 52.13340759 28.12025452 C52.91356813 31.51208344 53.69546575 34.90350766 54.47789001 38.29481506 C54.98388425 40.49114976 55.48806607 42.6879031 55.99009705 44.88514709 C57.41692079 51.11133146 58.92451161 57.31153828 60.48594666 63.50526428 C61.2093537 66.42698857 61.84780505 69.35792904 62.44590759 72.30775452 C63.82103107 78.83959103 65.37146025 85.32131243 66.94590759 91.80775452 C69.96185303 104.25775904 72.77026733 116.74895771 75.50791931 129.26283264 C76.03696682 131.67968355 76.57040192 134.09548917 77.10606384 136.51087952 C81.30820868 155.68448511 81.30820868 155.68448511 81.13340759 163.12025452 C81.79340759 163.12025452 82.45340759 163.12025452 83.13340759 163.12025452 C83.23774109 162.54621887 83.34207458 161.97218323 83.4495697 161.38075256 C88.26855927 135.27045176 95.23470873 109.71580627 102.38560486 84.16419983 C104.61355589 76.15730736 106.61551275 68.12101525 108.48204041 60.02308655 C109.77671182 54.45511721 111.35290499 49.04326058 113.10606384 43.60072327 C114.69990779 38.20104664 115.92413603 32.71944915 117.19664001 27.23670959 C119.25035244 18.45627592 121.64673471 9.78657406 124.13340759 1.12025452 C126.9765409 0.31050548 129.49043724 -0.00216407 132.44297791 0.00672913 C133.70383209 0.00684242 133.70383209 0.00684242 134.99015808 0.00695801 C136.33723846 0.01469994 136.33723846 0.01469994 137.71153259 0.02259827 C138.63810669 0.02401321 139.56468079 0.02542816 140.51933289 0.02688599 C143.47405751 0.03247628 146.42870593 0.04502701 149.38340759 0.05775452 C151.38861483 0.06277077 153.39382326 0.06733346 155.39903259 0.07142639 C160.31052022 0.08244253 165.22195099 0.09970052 170.13340759 0.12025452 C173.38615399 7.54545088 173.38615399 7.54545088 174.37950134 11.17884827 C174.67630798 12.25489319 174.67630798 12.25489319 174.97911072 13.35267639 C175.17440369 14.08035217 175.36969666 14.80802795 175.57090759 15.55775452 C175.76233337 16.25062561 175.95375916 16.9434967 176.15098572 17.65736389 C177.69696011 23.31593036 179.11390514 29.00640947 180.53050232 34.69839478 C182.50786591 42.63994398 184.53457691 50.56864678 186.57090759 58.49525452 C186.86546341 59.64279709 186.86546341 59.64279709 187.16596985 60.81352234 C189.53299349 70.02668077 191.93949413 79.22299902 194.53160095 88.37586975 C196.00026335 93.57617938 197.33787132 98.79969186 198.61949158 104.04847717 C199.45691907 107.46571491 200.3300961 110.86572742 201.28184509 114.25306702 C204.16309289 124.59541322 206.4052013 135.02210332 208.44590759 145.55775452 C208.58091675 146.24991058 208.7159259 146.94206665 208.85502625 147.65519714 C211.13340759 159.39093487 211.13340759 159.39093487 211.13340759 164.12025452 C212.12340759 164.12025452 213.11340759 164.12025452 214.13340759 164.12025452 C214.07926697 163.06451233 214.02512634 162.00877014 213.96934509 160.92103577 C213.97727636 154.88930967 215.43487131 149.16449381 216.75840759 143.30775452 C217.02838562 142.08451477 217.29836365 140.86127502 217.57652283 139.60096741 C218.14163494 137.04477312 218.71028555 134.48935874 219.28233337 131.93470764 C220.09880331 128.2753484 220.89832592 124.612742 221.69200134 120.94837952 C224.01540076 110.27125194 226.44515074 99.65676562 229.30943298 89.11146545 C231.71960646 80.1353805 233.58719403 71.04216902 235.52598572 61.95521545 C238.69396393 47.16961939 242.23840423 32.48178735 245.88340759 17.80775452 C246.08599182 16.98788055 246.28857605 16.16800659 246.49729919 15.32328796 C247.07529663 12.98770827 247.65822168 10.65341773 248.24278259 8.31947327 C248.41861877 7.60701447 248.59445496 6.89455566 248.77561951 6.1605072 C250.01858762 1.23507449 250.01858762 1.23507449 251.13340759 0.12025452 C252.60695107 0.02721434 254.0849135 0.00279187 255.56138611 0.00672913 C256.50228592 0.00680466 257.44318573 0.00688019 258.41259766 0.00695801 C259.435504 0.01211929 260.45841034 0.01728058 261.51231384 0.02259827 C262.55411301 0.02401321 263.59591217 0.02542816 264.66928101 0.02688599 C268.01151853 0.03250372 271.35369016 0.04505922 274.69590759 0.05775452 C276.95567225 0.06276723 279.21543796 0.06733053 281.47520447 0.07142639 C287.0279615 0.08247891 292.58067984 0.09923428 298.13340759 0.12025452 C299.44021117 4.04066524 298.44361875 6.88954956 297.46153259 10.76478577 C297.27665283 11.52000015 297.09177307 12.27521454 296.90129089 13.05331421 C296.32104624 15.41131962 295.72864845 17.7659943 295.13340759 20.12025452 C294.95704773 20.82470703 294.78068787 21.52915955 294.59898376 22.25495911 C293.38280951 27.11171954 292.13692967 31.96051959 290.88340759 36.80775452 C290.49178094 38.3280931 290.10017988 39.84843829 289.70860291 41.36878967 C286.83508651 52.50421508 283.86979803 63.61356822 280.88145447 74.71864319 C278.70590416 82.84783962 276.68838464 91.00118939 274.78477478 99.19789124 C273.43069832 104.99366145 271.85014929 110.69258104 270.16465759 116.40150452 C268.60656014 122.02009838 267.31475174 127.69780346 265.99107361 133.37538147 C264.81091103 138.39685756 263.5362996 143.3599015 262.07090759 148.30775452 C260.55003778 153.46046144 259.32139436 158.62134261 258.19590759 163.87025452 C256.72761774 170.71019508 254.98749358 177.42314078 253.06163025 184.14735413 C251.15898412 190.85748848 249.54277017 197.6228837 248.00865173 204.42616272 C246.38370553 211.49093314 244.28565703 218.12544385 242.13340759 225.12025452 C223.98340759 225.12025452 205.83340759 225.12025452 187.13340759 225.12025452 C184.15005141 215.57351474 181.23984116 206.15351109 178.74620056 196.4903717 C178.02783346 193.71192236 177.30125023 190.93566743 176.57481384 188.15931702 C173.17455951 175.13417256 169.84957305 162.09201387 166.61851501 149.02381897 C164.87389974 141.99009858 163.03829795 134.98516067 161.16197205 127.98548889 C159.41437068 121.4181913 157.72973739 114.83548389 156.07090759 108.24525452 C155.80902649 107.20606873 155.80902649 107.20606873 155.54185486 106.14588928 C152.96254769 95.87012857 150.65062251 85.61432435 149.13340759 75.12025452 C147.81340759 75.12025452 146.49340759 75.12025452 145.13340759 75.12025452 C144.95551697 76.97650452 144.95551697 76.97650452 144.77403259 78.87025452 C144.12454044 84.68389054 143.03314504 90.38738936 141.88340759 96.12025452 C141.55179626 97.77782776 141.55179626 97.77782776 141.21348572 99.46888733 C139.7923072 106.38354485 138.11471133 113.12624407 136.01158142 119.86170959 C134.27608927 125.45641502 132.89333035 131.10227106 131.57090759 136.80775452 C130.22143794 142.62421863 128.82556881 148.39137137 127.13340759 154.12025452 C125.58269279 159.40123208 124.25520057 164.69957015 123.00840759 170.05775452 C120.66842973 180.07007615 118.16650624 190.03987138 115.62785339 200.00334167 C115.17447076 201.7847138 114.72276023 203.56651236 114.27275085 205.34873962 C113.63328356 207.87925364 112.98769297 210.40812878 112.34043884 212.93666077 C112.1478801 213.70249481 111.95532135 214.46832886 111.75692749 215.25737 C110.84958304 218.77382303 109.82573121 221.9134685 108.13340759 225.12025452 C100.4796276 225.17083243 92.82589046 225.20593636 85.17198181 225.2301178 C82.56649668 225.24019516 79.96102291 225.25385722 77.35557556 225.27113342 C73.61742861 225.29530554 69.87943075 225.30672011 66.14122009 225.31556702 C64.38492783 225.33105087 64.38492783 225.33105087 62.59315491 225.34684753 C60.97170059 225.34707413 60.97170059 225.34707413 59.31748962 225.3473053 C58.36262665 225.35174652 57.40776367 225.35618774 56.42396545 225.36076355 C54.13340759 225.12025452 54.13340759 225.12025452 52.13340759 223.12025452 C51.37872691 220.69090499 50.71854697 218.29730742 50.10997009 215.83119202 C49.92252228 215.09510712 49.73507446 214.35902222 49.54194641 213.60063171 C48.94088478 211.23377417 48.34954081 208.86460902 47.75840759 206.49525452 C47.36841605 204.95342748 46.9777973 203.41175895 46.58653259 201.87025452 C45.05616168 195.82868633 43.54702466 189.78185295 42.04063416 183.73426819 C40.28859522 176.70312741 38.51084918 169.68165241 36.63340759 162.68275452 C35.0377662 156.68196817 33.52899653 150.67063883 32.13340759 144.62025452 C30.21560954 136.32133191 28.04843754 128.09795475 25.86045837 119.86683655 C20.14271903 98.26691459 14.71421297 76.59491485 9.34825134 54.90541077 C8.75616715 52.51860176 8.16372248 50.13188214 7.57090759 47.74525452 C7.28393005 46.58719299 6.99695251 45.42913147 6.70127869 44.23597717 C5.33314331 38.75645144 3.92335017 33.29576804 2.39512634 27.85853577 C1.98145813 26.38489563 1.98145813 26.38489563 1.55943298 24.88148499 C1.04830666 23.07969069 0.52881011 21.28023551 -0.00160217 19.48402405 C-1.72085917 13.44656358 -2.78240426 7.41652917 -2.86659241 1.12025452 C-1.86659241 0.12025452 -1.86659241 0.12025452 0 0 Z " fill="#FCFCFC" transform="translate(73.86659240722656,165.87974548339844)"/>
<path d="M0 0 C1.27479721 -0.00315216 2.54959442 -0.00630432 3.86302185 -0.009552 C5.2655338 -0.00776203 6.66804543 -0.00571103 8.07055664 -0.00341797 C9.49923214 -0.00409112 10.92790753 -0.00506124 12.35658264 -0.00631714 C15.35524584 -0.00779407 18.35387931 -0.00564004 21.35253906 -0.00097656 C25.20074047 0.00471559 29.04887205 0.00144497 32.89707088 -0.00454903 C35.84896879 -0.00815916 38.80085009 -0.00701387 41.75274849 -0.00442123 C43.17175874 -0.00375295 44.59077048 -0.00457695 46.00977898 -0.00690079 C47.99219612 -0.0094341 49.97461852 -0.00488977 51.95703125 0 C53.08652695 0.00079559 54.21602264 0.00159119 55.37974548 0.00241089 C58.04321289 0.12939453 58.04321289 0.12939453 60.04321289 1.12939453 C60.77001953 2.89404297 60.77001953 2.89404297 61.45336914 5.23876953 C61.71649902 6.12435547 61.97962891 7.00994141 62.25073242 7.92236328 C62.53287598 8.89818359 62.81501953 9.87400391 63.10571289 10.87939453 C63.72846489 12.97863371 64.3522112 15.0775781 64.97680664 17.17626953 C65.30922363 18.2996875 65.64164062 19.42310547 65.98413086 20.58056641 C67.83349001 26.77749693 69.75039853 32.95336863 71.66821289 39.12939453 C72.24696167 40.9962793 72.24696167 40.9962793 72.83740234 42.90087891 C75.08647315 50.13117491 77.41431227 57.32348638 79.8515625 64.49243164 C81.10036793 68.30383391 82.23817062 72.14038556 83.35180664 75.99267578 C85.68489743 83.99065059 88.14846472 91.94245285 90.66445923 99.88452148 C91.86741435 103.68239912 93.06472197 107.48205611 94.26196289 111.28173828 C94.61911125 112.41486954 94.61911125 112.41486954 94.98347473 113.57089233 C97.13800424 120.41445166 99.2536992 127.26951089 101.35571289 134.12939453 C104.52779055 144.48110495 107.76151583 154.81193786 111.04321289 165.12939453 C114.2925266 157.05450428 117.11942289 148.96307145 119.63696289 140.63720703 C120.99060634 136.22123984 122.4657205 131.84744575 123.9339447 127.4684906 C125.73647345 122.07904362 127.49172692 116.67511138 129.23461914 111.26611328 C129.50950165 110.41452637 129.78438416 109.56293945 130.06759644 108.68554688 C131.20100512 105.17421362 132.33416676 101.66281454 133.46191406 98.1496582 C138.99699632 80.9169014 138.99699632 80.9169014 142.22265625 73.19067383 C143.58634817 69.76501156 144.56052313 66.24186653 145.54321289 62.69189453 C146.91511996 57.87517579 148.33667948 53.13156742 150.10571289 48.44189453 C151.51147568 44.70610759 152.67684901 40.97932067 153.73071289 37.12939453 C155.82304502 29.61218515 158.26912916 22.22047328 160.73071289 14.81689453 C161.13572021 13.59292969 161.54072754 12.36896484 161.95800781 11.10791016 C162.34061768 9.96386719 162.72322754 8.81982422 163.11743164 7.64111328 C163.46378662 6.6043042 163.8101416 5.56749512 164.16699219 4.49926758 C165.04321289 2.12939453 165.04321289 2.12939453 166.04321289 1.12939453 C168.05662683 1.00039303 170.07451888 0.94086148 172.09179688 0.90820312 C174.03402382 0.87344376 174.03402382 0.87344376 176.01548767 0.83798218 C177.44009034 0.81767448 178.8646968 0.79763082 180.28930664 0.77783203 C181.74040674 0.7547275 183.19150232 0.73133728 184.64259338 0.70767212 C187.68828484 0.65915248 190.7340033 0.61423173 193.77978516 0.57177734 C197.68862807 0.51698808 201.59726127 0.45315543 205.50591946 0.3866024 C208.50408281 0.33657663 211.5023044 0.29143027 214.50056648 0.24776077 C215.94192945 0.22615855 217.38327002 0.20300575 218.82458305 0.17829514 C220.83805617 0.1444909 222.85164755 0.11796572 224.86523438 0.09179688 C226.01249496 0.07482758 227.15975555 0.05785828 228.34178162 0.04037476 C231.04321289 0.12939453 231.04321289 0.12939453 233.04321289 1.12939453 C233.08987312 30.04005063 233.12517235 58.95070112 233.14683723 87.86138725 C233.14889029 90.53031288 233.15095965 93.19923849 233.15307617 95.86816406 C233.15360079 96.53155592 233.15412541 97.19494778 233.15466593 97.87844242 C233.16337709 108.63093611 233.17915096 119.38340849 233.19751848 130.13588952 C233.21619779 141.1625591 233.22717565 152.1892169 233.23138988 163.21590149 C233.23400384 169.41210213 233.24017396 175.60825438 233.254673 181.80443954 C233.26819578 187.63033072 233.27244634 193.45615334 233.26942825 199.28205872 C233.2699808 201.42592363 233.27398969 203.56979072 233.28162384 205.71364212 C233.29150215 208.62948275 233.28920797 211.5450609 233.28372192 214.46090698 C233.28954761 215.31887182 233.29537329 216.17683666 233.30137551 217.06080043 C233.27145531 222.90115211 233.27145531 222.90115211 231.04321289 225.12939453 C229.13902283 225.37663269 229.13902283 225.37663269 226.79296875 225.37231445 C225.91543442 225.37539108 225.03790009 225.37846771 224.1337738 225.38163757 C222.71029381 225.3708593 222.71029381 225.3708593 221.25805664 225.35986328 C220.28663223 225.35940506 219.31520782 225.35894684 218.31434631 225.35847473 C216.25903096 225.35545077 214.20371794 225.34756019 212.1484375 225.33520508 C208.99023384 225.31694957 205.83232317 225.31469534 202.67407227 225.31494141 C200.68123117 225.31002635 198.68839208 225.30419808 196.69555664 225.29736328 C195.74454575 225.29625046 194.79353485 225.29513763 193.81370544 225.29399109 C192.93932327 225.28761124 192.0649411 225.28123138 191.1640625 225.2746582 C190.39066025 225.27084641 189.617258 225.26703461 188.82041931 225.2631073 C187.04321289 225.12939453 187.04321289 225.12939453 186.04321289 224.12939453 C185.94489892 222.47816177 185.916893 220.82270541 185.91622925 219.16854858 C185.91340942 218.09289139 185.9105896 217.01723419 185.90768433 215.90898132 C185.91072067 214.12195549 185.91072067 214.12195549 185.91381836 212.29882812 C185.91118988 210.42746437 185.91118988 210.42746437 185.9085083 208.51829529 C185.90484435 205.07627918 185.90573064 201.63432271 185.90888739 198.19230986 C185.9114232 194.56461731 185.90906851 190.93692727 185.90750122 187.30923462 C185.90567614 181.18385363 185.90808741 175.05848464 185.9128418 168.93310547 C185.91821232 161.93490462 185.91657674 154.93673324 185.91101539 147.93853319 C185.90640551 141.88796983 185.90587345 135.83741513 185.90845406 129.78685057 C185.90998388 126.19373513 185.91030613 122.60063324 185.90691757 119.00751877 C185.89086143 99.35929646 186.28961979 79.76151801 187.04321289 60.12939453 C183.61945151 68.96025654 180.46788739 77.73520417 177.86645508 86.84228516 C175.99782987 93.3690622 173.87466808 99.79590898 171.68920898 106.22363281 C170.58558757 109.47944112 169.50316504 112.74233037 168.41821289 116.00439453 C166.70045578 121.16395591 164.97913664 126.32229989 163.25158691 131.47859192 C162.11835342 134.86176652 160.98670748 138.24547086 159.85571289 141.62939453 C159.62184875 142.32904327 159.38798462 143.02869202 159.14703369 143.74954224 C155.21846933 155.51258796 151.38926879 167.3059132 147.59561157 179.11306763 C144.59772568 188.43668506 141.49569643 197.71266245 138.19604492 206.93457031 C136.39297405 212.00759818 134.83677174 217.09611391 133.55102539 222.32861328 C133.04321289 224.12939453 133.04321289 224.12939453 132.04321289 225.12939453 C130.67852273 225.24802131 129.30787792 225.2994015 127.93823242 225.32226562 C127.06707794 225.33832855 126.19592346 225.35439148 125.29837036 225.37094116 C121.31016662 225.41522111 117.32213205 225.4564523 113.33374023 225.47949219 C111.22685715 225.49606646 109.12003063 225.5233757 107.01342773 225.56152344 C103.98399537 225.61613775 100.95588294 225.63814185 97.92602539 225.65283203 C96.98220001 225.6755014 96.03837463 225.69817078 95.06594849 225.7215271 C92.62342807 225.71359365 90.42590932 225.66686475 88.04321289 225.12939453 C85.99194336 222.76489258 85.99194336 222.76489258 85.04321289 220.12939453 C84.69258789 219.24123047 84.34196289 218.35306641 83.98071289 217.43798828 C82.36504038 212.48999121 80.86618159 207.57109745 79.66821289 202.50439453 C78.24400806 196.56631646 76.35420976 190.83383089 74.37573242 185.0625 C70.45008541 173.58813374 67.07609077 161.93488983 63.60571289 150.31689453 C61.1907257 142.2407632 58.77294507 134.16659314 56.23071289 126.12939453 C54.75518537 121.46108731 53.36407685 116.78128249 52.04321289 112.06689453 C50.69123439 107.26709937 49.2050009 102.54002547 47.60571289 97.81689453 C45.72894162 92.2621164 43.96050814 86.68814847 42.29321289 81.06689453 C42.08253174 80.36459717 41.87185059 79.6622998 41.65478516 78.9387207 C40.50658431 75.02373683 39.62284327 71.16790617 39.04321289 67.12939453 C38.05321289 67.12939453 37.06321289 67.12939453 36.04321289 67.12939453 C36.10379883 68.16 36.16438477 69.19060547 36.22680664 70.25244141 C38.1147385 103.70985261 38.24307192 137.15342007 38.23168945 170.65457153 C38.2307099 174.26540268 38.23168963 177.87622954 38.23291016 181.48706055 C38.23385916 187.24377598 38.22824604 193.00044832 38.21697426 198.75715256 C38.21312774 200.91863168 38.21072436 203.08011388 38.20979881 205.24159622 C38.20767512 208.2213229 38.1990693 211.20095709 38.18847656 214.18066406 C38.18893478 215.06435417 38.18939301 215.94804428 38.18986511 216.85851288 C38.15771996 222.9003804 38.15771996 222.9003804 37.04321289 225.12939453 C30.93766579 225.15403966 24.83214738 225.17222824 18.7265625 225.18432617 C16.64778133 225.18936742 14.56900373 225.19620027 12.49023438 225.20483398 C9.50918703 225.21690875 6.5281864 225.22262477 3.54711914 225.22705078 C2.1440023 225.23479271 2.1440023 225.23479271 0.71253967 225.24269104 C-0.57868553 225.24280434 -0.57868553 225.24280434 -1.89599609 225.24291992 C-2.65766586 225.24514053 -3.41933563 225.24736115 -4.2040863 225.24964905 C-5.95678711 225.12939453 -5.95678711 225.12939453 -6.95678711 224.12939453 C-7.05694711 221.26173713 -7.09117519 218.41808876 -7.08377075 215.54992676 C-7.08533074 214.63914572 -7.08689073 213.72836469 -7.088498 212.78998423 C-7.09251213 209.7136518 -7.08931676 206.63736802 -7.08618164 203.56103516 C-7.0875355 201.36549348 -7.08931534 199.16995203 -7.0914917 196.97441101 C-7.09606788 190.99318324 -7.09427572 185.01197264 -7.09111261 179.03074455 C-7.08858996 172.78648709 -7.09092628 166.54223115 -7.09249878 160.29797363 C-7.09443763 149.13684172 -7.09131985 137.97571614 -7.08623944 126.81458575 C-7.0817714 116.68498036 -7.08254733 106.55538643 -7.0871582 96.42578125 C-7.09250391 84.67623995 -7.09450483 72.92670424 -7.09154594 61.17716169 C-7.08998273 54.9525217 -7.0897906 48.72788961 -7.09308243 42.50325012 C-7.09596 36.65273562 -7.09398756 30.80224287 -7.08818817 24.95173073 C-7.08685996 22.79777373 -7.08725572 20.64381492 -7.08945084 18.48985863 C-7.09215994 15.5628347 -7.08878417 12.63588165 -7.08377075 9.7088623 C-7.08600147 8.8447758 -7.0882322 7.98068929 -7.09053051 7.09041834 C-7.06728609 0.15410707 -6.83746868 0.00481957 0 0 Z M35.04321289 57.12939453 C36.04321289 59.12939453 36.04321289 59.12939453 36.04321289 59.12939453 Z " fill="#FCFCFC" transform="translate(404.956787109375,165.87060546875)"/>
<path d="M0 0 C1.6027906 -0.00422974 1.6027906 -0.00422974 3.23796082 -0.00854492 C4.42033829 -0.00652069 5.60271576 -0.00449646 6.82092285 -0.00241089 C8.05816605 -0.00416321 9.29540924 -0.00591553 10.57014465 -0.00772095 C13.97295789 -0.01137922 17.37571068 -0.01050598 20.77852058 -0.00734186 C24.33216562 -0.00481795 27.88580799 -0.00715589 31.43945312 -0.00872803 C37.40824856 -0.01054963 43.37703164 -0.00814366 49.3458252 -0.00338745 C56.25600916 0.00205515 63.16616362 0.00029249 70.07634687 -0.00521386 C75.99905383 -0.00974525 81.92175188 -0.01039541 87.84446001 -0.00777519 C91.38631709 -0.00621256 94.92816028 -0.00601826 98.47001648 -0.00931168 C102.41642411 -0.01272464 106.36279843 -0.00800022 110.3092041 -0.00241089 C112.08277031 -0.00544724 112.08277031 -0.00544724 113.89216614 -0.00854492 C115.49495674 -0.00431519 115.49495674 -0.00431519 117.13012695 0 C118.06444801 0.00037703 118.99876907 0.00075405 119.96140289 0.0011425 C122.06506348 0.12698364 122.06506348 0.12698364 123.06506348 1.12698364 C123.06506348 14.32698364 123.06506348 27.52698364 123.06506348 41.12698364 C96.66506348 41.12698364 70.26506348 41.12698364 43.06506348 41.12698364 C43.06506348 56.30698364 43.06506348 71.48698364 43.06506348 87.12698364 C51.06047363 87.1095813 51.06047363 87.1095813 59.21740723 87.09182739 C62.58524698 87.08672056 65.95308199 87.08190679 69.32092285 87.07815552 C74.67176296 87.07216735 80.02258603 87.06506776 85.37341309 87.05154419 C89.6851832 87.04071435 93.99693506 87.03470661 98.30871773 87.0321064 C99.95742645 87.03025232 101.60613413 87.02663204 103.25483513 87.02125359 C105.55610219 87.01404186 107.85729287 87.01299275 110.15856934 87.01345825 C112.12714149 87.01012733 112.12714149 87.01012733 114.13548279 87.00672913 C117.06506348 87.12698364 117.06506348 87.12698364 118.06506348 88.12698364 C118.16616701 91.07233935 118.20475627 93.99375924 118.19787598 96.93948364 C118.1988327 97.82353882 118.19978943 98.70759399 118.20077515 99.61843872 C118.20145699 101.49140494 118.19960241 103.3643735 118.19543457 105.23733521 C118.19008637 108.11466752 118.19537941 110.99184372 118.20178223 113.86917114 C118.20112145 115.68427566 118.19984028 117.49938007 118.19787598 119.31448364 C118.19990021 120.18113647 118.20192444 121.04778931 118.20401001 121.94070435 C118.18001357 128.01203355 118.18001357 128.01203355 117.06506348 129.12698364 C114.76452512 129.221417 112.46104174 129.24440493 110.15856934 129.24050903 C109.43665909 129.24065506 108.71474884 129.24080109 107.97096252 129.24095154 C105.573914 129.24025233 103.17694225 129.23245959 100.77990723 129.22463989 C99.12223859 129.22277574 97.46456941 129.22135182 95.80690002 129.22035217 C91.43552134 129.21652677 87.06417567 129.2066963 82.69281006 129.19564819 C77.4523868 129.18364005 72.21195253 129.17903194 66.97151947 129.17319489 C59.00267781 129.16348454 51.03390866 129.14432817 43.06506348 129.12698364 C43.39506348 146.94698364 43.72506348 164.76698364 44.06506348 183.12698364 C52.49359863 183.1095813 52.49359863 183.1095813 61.09240723 183.09182739 C64.64253858 183.08672061 68.19266544 183.08190683 71.74279785 183.07815552 C77.38335098 183.07216719 83.02388796 183.06506716 88.66442871 183.05154419 C93.20961751 183.04071491 97.754789 183.03470672 102.2999897 183.0321064 C104.03801306 183.03025222 105.77603541 183.02663175 107.51405144 183.02125359 C109.93984942 183.01404261 112.36557494 183.01299272 114.79138184 183.01345825 C115.51714417 183.00986298 116.24290649 183.0062677 116.99066162 183.00256348 C121.95101132 183.01293148 121.95101132 183.01293148 123.06506348 184.12698364 C123.1537762 187.15676168 123.18025698 190.16365386 123.16271973 193.19338989 C123.16059731 194.55632423 123.16059731 194.55632423 123.15843201 195.9467926 C123.15281541 198.86105585 123.14026013 201.77524345 123.12756348 204.68948364 C123.12255061 206.66018566 123.11798734 208.63088888 123.1138916 210.60159302 C123.10284059 215.44341923 123.08556486 220.28518859 123.06506348 225.12698364 C106.41049863 225.19699549 89.75598135 225.24993331 73.10130501 225.28242016 C65.36863416 225.2979038 57.63605463 225.31902174 49.90344238 225.353302 C43.16544723 225.38315874 36.42751819 225.40254775 29.68945873 225.40924913 C26.12008983 225.41316776 22.55091011 225.42240773 18.98160172 225.44417381 C15.00173589 225.46824774 11.02205688 225.46895604 7.04211426 225.46755981 C5.85241028 225.47834564 4.6627063 225.48913147 3.43695068 225.50024414 C1.81730911 225.49405815 1.81730911 225.49405815 0.16494751 225.48774719 C-0.77712492 225.49051257 -1.71919735 225.49327795 -2.68981743 225.49612713 C-3.43070673 225.37430978 -4.17159603 225.25249243 -4.93493652 225.12698364 C-7.54741385 221.20826765 -7.19247169 217.92605334 -7.14421082 213.38293457 C-7.14254168 212.47861179 -7.14087254 211.57428901 -7.13915282 210.64256251 C-7.13105143 207.59998038 -7.10850672 204.55767491 -7.08605957 201.51516724 C-7.07727404 199.3390383 -7.06936021 197.1629057 -7.06225586 194.98677063 C-7.04031368 189.06757812 -7.00575751 183.14851889 -6.96872687 177.22940397 C-6.93188416 171.04658245 -6.90562723 164.86371549 -6.87800598 158.68084717 C-6.83003205 148.29859077 -6.77425813 137.91639925 -6.71350098 127.53421021 C-6.64320964 115.51282696 -6.58341543 103.49143474 -6.52964181 91.46996629 C-6.47239668 78.69516868 -6.40757672 65.92041776 -6.34048486 53.14566851 C-6.32160739 49.45355558 -6.30414836 45.76143816 -6.28699303 42.06931686 C-6.25971057 36.27948804 -6.22737116 30.48970904 -6.19103241 24.69993019 C-6.17843227 22.56855648 -6.16754113 20.43717191 -6.15843391 18.30578041 C-6.14576305 15.40949218 -6.12701762 12.51330794 -6.10661316 9.61706543 C-6.10427081 8.76212506 -6.10192847 7.90718468 -6.09951514 7.02633703 C-6.03832428 0.00243664 -6.03832428 0.00243664 0 0 Z " fill="#FCFCFC" transform="translate(696.9349365234375,165.87301635742188)"/>
<path d="M0 0 C-0.87386721 6.64693519 -3.43013624 12.48548639 -5.98266602 18.62304688 C-6.81108183 20.62157869 -7.62178233 22.62670097 -8.43164062 24.6328125 C-8.9598757 25.91450063 -9.48913823 27.19576588 -10.01953125 28.4765625 C-10.49495361 29.63236816 -10.97037598 30.78817383 -11.46020508 31.97900391 C-12.98007267 34.96090363 -14.50123764 36.80630931 -17 39 C-17.78947021 38.70754395 -18.57894043 38.41508789 -19.39233398 38.11376953 C-40.64453962 30.15924322 -40.64453962 30.15924322 -63 27 C-63.86882812 26.94585937 -64.73765625 26.89171875 -65.6328125 26.8359375 C-67.79294336 26.75314503 -69.84674208 26.82022893 -72 27 C-73.33611328 27.10248047 -73.33611328 27.10248047 -74.69921875 27.20703125 C-80.80219131 27.96469906 -84.98390386 29.52006951 -89.40234375 33.875 C-93.01633691 38.68187598 -94.0378764 43.76529268 -93.9375 49.6875 C-92.80912967 53.67440851 -91.19107933 56.4809938 -89 60 C-88.690625 60.763125 -88.38125 61.52625 -88.0625 62.3125 C-86.54345456 64.72510158 -84.62816436 64.96709389 -82 66 C-80.46012856 66.89866104 -78.93827019 67.82873347 -77.43359375 68.78515625 C-70.91287112 72.76568254 -64.00169118 75.72119214 -57.00976562 78.76757812 C-50.79214492 81.53851777 -45.09878488 84.65585054 -39.42773438 88.42626953 C-37.14981461 89.90288566 -34.84767381 91.19199646 -32.4375 92.4375 C-27.11703411 95.3490562 -22.57738314 99.04352372 -18 103 C-17.22398437 103.64453125 -16.44796875 104.2890625 -15.6484375 104.953125 C-4.25110204 115.21464352 1.16583011 130.30794667 2.23828125 145.33984375 C2.64179535 163.20065187 -2.43052818 179.08927164 -14.3984375 192.44921875 C-18.28100144 196.2559969 -22.34284452 199.21575297 -27 202 C-28.20849609 202.78117187 -28.20849609 202.78117187 -29.44140625 203.578125 C-37.69869049 208.57031517 -46.6836735 210.83577563 -56 213 C-57.06863281 213.24878906 -58.13726563 213.49757813 -59.23828125 213.75390625 C-85.7685124 218.77883745 -120.05125429 214.83466761 -144 202 C-146 200 -146 200 -146.24050903 198.08908081 C-146.23606781 197.31186676 -146.23162659 196.53465271 -146.22705078 195.73388672 C-146.22689972 194.85312469 -146.22674866 193.97236267 -146.22659302 193.06491089 C-146.21627045 192.11278717 -146.20594788 191.16066345 -146.1953125 190.1796875 C-146.19106766 188.71899338 -146.19106766 188.71899338 -146.18673706 187.22879028 C-146.17551913 184.11073651 -146.1504117 180.99296732 -146.125 177.875 C-146.11497228 175.76432706 -146.10584607 173.65364962 -146.09765625 171.54296875 C-146.07557458 166.36188165 -146.04208129 161.18096115 -146 156 C-141.66871235 154.63250142 -139.22617436 156.01454745 -135.3125 157.9375 C-113.72129962 167.92375033 -85.82182466 177.24808559 -61.828125 170.77734375 C-58.50050667 169.36239493 -55.84760371 167.20834573 -53 165 C-52.34 165 -51.68 165 -51 165 C-48.67965478 157.04096641 -46.73185555 149.92489964 -50 142 C-57.05610439 129.96311604 -74.26871675 122.56596316 -86.8125 117.625 C-92.25267604 115.45337659 -97.32080288 112.77081006 -102.4375 109.9375 C-103.20747314 109.51355957 -103.97744629 109.08961914 -104.77075195 108.65283203 C-108.81067993 106.38267174 -112.47278463 104.0340295 -116 101 C-116.65742187 100.44699219 -117.31484375 99.89398438 -117.9921875 99.32421875 C-120.012072 97.56834405 -122.00516591 95.784247 -124 94 C-124.57878906 93.52304687 -125.15757812 93.04609375 -125.75390625 92.5546875 C-137.70923491 81.95854934 -142.01601732 67.03596209 -143.26953125 51.703125 C-143.85917689 34.14478825 -139.39774717 19.8445616 -128.14453125 6.2890625 C-124.77235661 2.68961926 -121.02618857 -0.17407142 -117 -3 C-116.0925 -3.70125 -115.185 -4.4025 -114.25 -5.125 C-79.77584709 -25.01393437 -33.89111341 -16.61725233 0 0 Z " fill="#FCFCFC" transform="translate(996,179)"/>
</svg>
