<?xml version="1.0" encoding="UTF-8"?>
<svg version="1.1" xmlns="http://www.w3.org/2000/svg" width="177" height="24">
<path d="M0 0 C2 0.25 2 0.25 4 1 C4.33 1.99 4.66 2.98 5 4 C5.66 2.68 6.32 1.36 7 0 C8.32 0.33 9.64 0.66 11 1 C11 2.32 11 3.64 11 5 C11.66 5 12.32 5 13 5 C13.33 3.35 13.66 1.7 14 0 C16.64 0 19.28 0 22 0 C22.99 1.98 23.98 3.96 25 6 C25.99 4.02 26.98 2.04 28 0 C29.32 0 30.64 0 32 0 C32 4.62 32 9.24 32 14 C27.33333333 14 22.66666667 14 18 14 C17.67 11.03 17.34 8.06 17 5 C16.01 7.97 15.02 10.94 14 14 C12.68 14 11.36 14 10 14 C9.34 13.01 8.68 12.02 8 11 C7.67 11.99 7.34 12.98 7 14 C5.35 14 3.7 14 2 14 C1.47216999 11.85587698 0.95290681 9.70964319 0.4375 7.5625 C0.00244141 5.77005859 0.00244141 5.77005859 -0.44140625 3.94140625 C-0.62574219 2.97074219 -0.81007812 2.00007812 -1 1 C-0.67 0.67 -0.34 0.34 0 0 Z " fill="#020202" transform="translate(38,5)"/>
<path d="M0 0 C7.75 -0.125 7.75 -0.125 10 1 C10.99 0.835 11.98 0.67 13 0.5 C16 0 16 0 18 1 C17.125 4.875 17.125 4.875 16 6 C16.66 6.33 17.32 6.66 18 7 C18.04254356 8.99954746 18.04080783 11.00041636 18 13 C17 14 17 14 13.18359375 14.09765625 C11.60153318 14.09098089 10.01948841 14.07901875 8.4375 14.0625 C7.63119141 14.05798828 6.82488281 14.05347656 5.99414062 14.04882812 C3.99606244 14.03700518 1.99802217 14.01906914 0 14 C0 9.38 0 4.76 0 0 Z M8 3 C6.02 3.99 6.02 3.99 4 5 C5.32 5 6.64 5 8 5 C8 6.32 8 7.64 8 9 C6.68 9 5.36 9 4 9 C4 9.66 4 10.32 4 11 C7.3 11 10.6 11 14 11 C13.38125 10.4225 12.7625 9.845 12.125 9.25 C10.18652947 7.19750179 9.09985751 5.56633418 8 3 Z " fill="#010101" transform="translate(72,5)"/>
<path d="M0 0 C3.33333333 0 6.66666667 0 10 0 C10.86625 -0.020625 11.7325 -0.04125 12.625 -0.0625 C15 0 15 0 17 1 C17.66 0.67 18.32 0.34 19 0 C20.70702735 -0.06996014 22.41668003 -0.08440154 24.125 -0.0625 C25.03507812 -0.05347656 25.94515625 -0.04445313 26.8828125 -0.03515625 C27.93082031 -0.01775391 27.93082031 -0.01775391 29 0 C28.67 0.99 28.34 1.98 28 3 C28.66 3.66 29.32 4.32 30 5 C29.625 7.125 29.625 7.125 29 9 C23.83433855 10.03313229 20.91983428 9.63994476 16 8 C13.83284443 8.87483915 13.83284443 8.87483915 12 10 C11.01 9.67 10.02 9.34 9 9 C9 8.34 9 7.68 9 7 C8.34 7 7.68 7 7 7 C7 7.66 7 8.32 7 9 C4.69 9 2.38 9 0 9 C0 6.03 0 3.06 0 0 Z M3 2 C3 3.65 3 5.3 3 7 C3.99 6.67 4.98 6.34 6 6 C5.34 4.68 4.68 3.36 4 2 C3.67 2 3.34 2 3 2 Z M11 2 C10.67 2.99 10.34 3.98 10 5 C10.33 5.66 10.66 6.32 11 7 C11.99 7 12.98 7 14 7 C13.67 5.35 13.34 3.7 13 2 C12.34 2 11.68 2 11 2 Z M20 2 C19.40929986 3.94603274 19.40929986 3.94603274 19 6 C20.18424326 7.41577477 20.18424326 7.41577477 23.5625 7.0625 C25.2640625 7.0315625 25.2640625 7.0315625 27 7 C25.37660195 5.29115995 23.70680947 3.62553283 22 2 C21.34 2 20.68 2 20 2 Z " fill="#030303" transform="translate(98,9)"/>
<path d="M0 0 C1.65 0 3.3 0 5 0 C4.34 2.97 3.68 5.94 3 9 C2.01 9 1.02 9 0 9 C0 6.03 0 3.06 0 0 Z " fill="#0A0A0A" transform="translate(98,9)"/>
</svg>
